<svg xmlns="http://www.w3.org/2000/svg" xmlns:xlink="http://www.w3.org/1999/xlink" version="1.1" width="256" height="256" viewBox="0 0 256 256" xml:space="preserve">
<g style="stroke: none; stroke-width: 0; stroke-dasharray: none; stroke-linecap: butt; stroke-linejoin: miter; stroke-miterlimit: 10; fill: none; fill-rule: nonzero; opacity: 1;" transform="translate(1.4065934065934016 1.4065934065934016) scale(2.81 2.81)">
	<path d="M 63.27 21.828 c -5.256 -5.014 -12.23 -7.636 -19.548 -7.286 c -13.134 0.618 -23.917 10.941 -25.083 24.012 c -0.832 9.326 3.167 18.198 10.696 23.731 c 2.452 1.801 4.007 4.69 4.271 7.927 v 7.604 c 0 2.003 1.63 3.633 3.633 3.633 h 0.354 v 4.274 c 0 2.358 1.918 4.276 4.276 4.276 h 7.135 c 2.358 0 4.276 -1.918 4.276 -4.276 v -4.274 h 0.354 c 2.003 0 3.633 -1.63 3.633 -3.633 v -7.634 c 0.091 -3.3 1.707 -6.465 4.434 -8.684 c 6.208 -5.053 9.768 -12.531 9.768 -20.517 C 71.469 33.676 68.557 26.874 63.27 21.828 z M 51.28 85.724 c 0 1.255 -1.021 2.276 -2.276 2.276 h -7.135 c -1.255 0 -2.276 -1.021 -2.276 -2.276 v -4.274 H 51.28 V 85.724 z M 55.268 77.816 c 0 0.9 -0.732 1.633 -1.633 1.633 H 52.28 H 38.593 h -1.354 c -0.9 0 -1.633 -0.732 -1.633 -1.633 v -6.661 h 19.662 V 77.816 z M 60.439 59.948 c -2.913 2.37 -4.739 5.683 -5.107 9.207 H 35.498 c -0.507 -3.451 -2.29 -6.506 -4.979 -8.481 c -6.961 -5.116 -10.657 -13.318 -9.888 -21.942 c 1.077 -12.08 11.044 -21.62 23.185 -22.191 c 6.785 -0.328 13.215 2.1 18.072 6.735 c 4.888 4.664 7.58 10.953 7.58 17.707 C 69.469 48.363 66.178 55.276 60.439 59.948 z" style="stroke: none; stroke-width: 1; stroke-dasharray: none; stroke-linecap: butt; stroke-linejoin: miter; stroke-miterlimit: 10; fill: rgb(0,0,0); fill-rule: nonzero; opacity: 1;" transform=" matrix(1 0 0 1 0 0) " stroke-linecap="round"/>
	<path d="M 12.305 39.798 H 5.202 c -0.552 0 -1 0.448 -1 1 s 0.448 1 1 1 h 7.103 c 0.552 0 1 -0.448 1 -1 S 12.857 39.798 12.305 39.798 z" style="stroke: none; stroke-width: 1; stroke-dasharray: none; stroke-linecap: butt; stroke-linejoin: miter; stroke-miterlimit: 10; fill: rgb(0,0,0); fill-rule: nonzero; opacity: 1;" transform=" matrix(1 0 0 1 0 0) " stroke-linecap="round"/>
	<path d="M 84.798 39.798 h -7.103 c -0.553 0 -1 0.448 -1 1 s 0.447 1 1 1 h 7.103 c 0.553 0 1 -0.448 1 -1 S 85.351 39.798 84.798 39.798 z" style="stroke: none; stroke-width: 1; stroke-dasharray: none; stroke-linecap: butt; stroke-linejoin: miter; stroke-miterlimit: 10; fill: rgb(0,0,0); fill-rule: nonzero; opacity: 1;" transform=" matrix(1 0 0 1 0 0) " stroke-linecap="round"/>
	<path d="M 21.174 63.21 l -5.022 5.022 c -0.391 0.391 -0.391 1.023 0 1.414 c 0.195 0.195 0.451 0.293 0.707 0.293 s 0.512 -0.098 0.707 -0.293 l 5.022 -5.022 c 0.391 -0.391 0.391 -1.023 0 -1.414 S 21.564 62.819 21.174 63.21 z" style="stroke: none; stroke-width: 1; stroke-dasharray: none; stroke-linecap: butt; stroke-linejoin: miter; stroke-miterlimit: 10; fill: rgb(0,0,0); fill-rule: nonzero; opacity: 1;" transform=" matrix(1 0 0 1 0 0) " stroke-linecap="round"/>
	<path d="M 72.435 11.95 l -5.022 5.022 c -0.391 0.391 -0.391 1.023 0 1.414 c 0.195 0.195 0.451 0.293 0.707 0.293 s 0.512 -0.098 0.707 -0.293 l 5.022 -5.022 c 0.391 -0.391 0.391 -1.023 0 -1.414 S 72.825 11.559 72.435 11.95 z" style="stroke: none; stroke-width: 1; stroke-dasharray: none; stroke-linecap: butt; stroke-linejoin: miter; stroke-miterlimit: 10; fill: rgb(0,0,0); fill-rule: nonzero; opacity: 1;" transform=" matrix(1 0 0 1 0 0) " stroke-linecap="round"/>
	<path d="M 68.826 63.21 c -0.391 -0.391 -1.023 -0.391 -1.414 0 s -0.391 1.023 0 1.414 l 5.022 5.022 c 0.195 0.195 0.451 0.293 0.707 0.293 s 0.512 -0.098 0.707 -0.293 c 0.391 -0.391 0.391 -1.023 0 -1.414 L 68.826 63.21 z" style="stroke: none; stroke-width: 1; stroke-dasharray: none; stroke-linecap: butt; stroke-linejoin: miter; stroke-miterlimit: 10; fill: rgb(0,0,0); fill-rule: nonzero; opacity: 1;" transform=" matrix(1 0 0 1 0 0) " stroke-linecap="round"/>
	<path d="M 21.174 18.386 c 0.195 0.195 0.451 0.293 0.707 0.293 s 0.512 -0.098 0.707 -0.293 c 0.391 -0.391 0.391 -1.023 0 -1.414 l -5.022 -5.022 c -0.391 -0.391 -1.023 -0.391 -1.414 0 s -0.391 1.023 0 1.414 L 21.174 18.386 z" style="stroke: none; stroke-width: 1; stroke-dasharray: none; stroke-linecap: butt; stroke-linejoin: miter; stroke-miterlimit: 10; fill: rgb(0,0,0); fill-rule: nonzero; opacity: 1;" transform=" matrix(1 0 0 1 0 0) " stroke-linecap="round"/>
	<path d="M 45 9.103 c 0.552 0 1 -0.448 1 -1 V 1 c 0 -0.552 -0.448 -1 -1 -1 s -1 0.448 -1 1 v 7.103 C 44 8.655 44.448 9.103 45 9.103 z" style="stroke: none; stroke-width: 1; stroke-dasharray: none; stroke-linecap: butt; stroke-linejoin: miter; stroke-miterlimit: 10; fill: rgb(0,0,0); fill-rule: nonzero; opacity: 1;" transform=" matrix(1 0 0 1 0 0) " stroke-linecap="round"/>
	<path d="M 36.116 35.936 c -0.538 -0.127 -1.075 0.212 -1.198 0.751 c -0.124 0.539 0.213 1.075 0.751 1.198 c 0.959 0.22 1.656 1.25 1.656 2.449 c 0 1.172 -0.679 2.197 -1.614 2.437 c -0.535 0.138 -0.857 0.683 -0.72 1.217 c 0.116 0.452 0.522 0.751 0.968 0.751 c 0.082 0 0.166 -0.01 0.249 -0.031 c 1.835 -0.471 3.117 -2.27 3.117 -4.374 C 39.326 38.21 37.976 36.361 36.116 35.936 z" style="stroke: none; stroke-width: 1; stroke-dasharray: none; stroke-linecap: butt; stroke-linejoin: miter; stroke-miterlimit: 10; fill: rgb(0,0,0); fill-rule: nonzero; opacity: 1;" transform=" matrix(1 0 0 1 0 0) " stroke-linecap="round"/>
	<path d="M 59.167 34.491 c 0.038 -0.296 0.057 -0.595 0.057 -0.896 c 0 -3.571 -2.654 -6.477 -5.86 -6.274 c -0.635 -2.697 -2.838 -4.681 -5.388 -4.681 c -1.062 0 -2.089 0.352 -2.976 0.985 c -0.887 -0.634 -1.914 -0.985 -2.976 -0.985 c -2.549 0 -4.752 1.984 -5.387 4.681 c -3.199 -0.205 -5.86 2.703 -5.86 6.274 c 0 0.301 0.019 0.6 0.057 0.896 c -2.094 0.929 -3.534 3.239 -3.534 5.847 c 0 2.496 1.275 4.683 3.211 5.692 c -0.293 0.774 -0.446 1.609 -0.446 2.464 c 0 3.465 2.501 6.283 5.575 6.283 c 0.353 0 0.702 -0.037 1.043 -0.11 c 0.687 2.62 2.816 4.472 5.34 4.472 c 1.062 0 2.089 -0.352 2.976 -0.986 c 0.887 0.634 1.914 0.986 2.976 0.986 c 2.523 0 4.654 -1.851 5.341 -4.472 c 0.342 0.073 0.69 0.11 1.044 0.11 c 3.073 0 5.574 -2.818 5.574 -6.283 c 0 -0.854 -0.152 -1.689 -0.445 -2.464 c 1.937 -1.01 3.212 -3.196 3.212 -5.692 C 62.701 37.73 61.262 35.42 59.167 34.491 z M 38.475 53.304 c 0.163 -3.107 1.519 -3.8 2.529 -4.049 c 0.536 -0.132 0.864 -0.673 0.732 -1.209 c -0.132 -0.537 -0.673 -0.868 -1.21 -0.732 c -1.649 0.405 -3.63 1.666 -4.004 5.313 c -0.289 0.089 -0.582 0.151 -0.882 0.151 c -1.971 0 -3.575 -1.922 -3.575 -4.283 c 0 -0.896 0.232 -1.757 0.671 -2.488 c 0.162 -0.271 0.187 -0.603 0.067 -0.895 c -0.12 -0.292 -0.371 -0.51 -0.676 -0.589 c -1.639 -0.42 -2.828 -2.18 -2.828 -4.185 c 0 -2.052 1.221 -3.82 2.904 -4.206 c 0.265 -0.061 0.493 -0.226 0.633 -0.458 c 0.14 -0.233 0.18 -0.512 0.109 -0.775 c -0.113 -0.421 -0.17 -0.86 -0.17 -1.304 c 0 -2.361 1.604 -4.283 3.575 -4.283 c 0.048 0 0.097 0.008 0.145 0.011 c 0.182 2.225 1.305 4.381 3.615 4.734 c 0.051 0.008 0.103 0.012 0.153 0.012 c 0.485 0 0.912 -0.354 0.987 -0.849 c 0.083 -0.546 -0.291 -1.057 -0.837 -1.14 c -1.598 -0.245 -1.97 -2.41 -1.945 -3.547 c 0.165 -2.185 1.723 -3.894 3.555 -3.894 c 0.853 0 1.514 0.35 1.976 0.721 v 31.058 c -0.462 0.371 -1.124 0.721 -1.976 0.721 C 40.212 57.139 38.663 55.457 38.475 53.304 z M 57.873 44.522 c -0.307 0.079 -0.558 0.297 -0.677 0.589 c -0.12 0.292 -0.095 0.624 0.067 0.894 c 0.439 0.73 0.671 1.591 0.671 2.488 c 0 2.361 -1.604 4.283 -3.574 4.283 c -0.301 0 -0.594 -0.061 -0.882 -0.151 c -0.375 -3.647 -2.357 -4.908 -4.006 -5.313 c -0.532 -0.135 -1.077 0.196 -1.209 0.732 s 0.196 1.078 0.732 1.209 c 1.01 0.249 2.365 0.942 2.53 4.049 c -0.189 2.154 -1.738 3.835 -3.55 3.835 c -0.853 0 -1.514 -0.35 -1.976 -0.721 V 25.36 c 0.462 -0.371 1.123 -0.721 1.976 -0.721 c 1.831 0 3.388 1.706 3.555 3.888 c 0.027 1.134 -0.343 3.308 -1.944 3.553 c -0.546 0.083 -0.921 0.594 -0.837 1.14 c 0.075 0.495 0.502 0.849 0.987 0.849 c 0.05 0 0.101 -0.003 0.152 -0.012 c 2.311 -0.353 3.433 -2.509 3.615 -4.734 c 0.048 -0.003 0.096 -0.011 0.144 -0.011 c 1.972 0 3.575 1.921 3.575 4.283 c 0 0.446 -0.058 0.884 -0.17 1.303 c -0.07 0.263 -0.031 0.542 0.109 0.775 c 0.14 0.233 0.368 0.398 0.634 0.459 c 1.683 0.385 2.904 2.154 2.904 4.206 C 60.701 42.342 59.512 44.102 57.873 44.522 z" style="stroke: none; stroke-width: 1; stroke-dasharray: none; stroke-linecap: butt; stroke-linejoin: miter; stroke-miterlimit: 10; fill: rgb(0,0,0); fill-rule: nonzero; opacity: 1;" transform=" matrix(1 0 0 1 0 0) " stroke-linecap="round"/>
	<path d="M 54.33 37.885 c 0.539 -0.123 0.875 -0.659 0.752 -1.198 c -0.123 -0.539 -0.661 -0.878 -1.197 -0.751 c -1.86 0.425 -3.21 2.275 -3.21 4.398 c 0 2.104 1.281 3.903 3.117 4.374 c 0.083 0.021 0.166 0.031 0.249 0.031 c 0.445 0 0.852 -0.3 0.968 -0.751 c 0.137 -0.535 -0.186 -1.08 -0.721 -1.217 c -0.935 -0.24 -1.613 -1.265 -1.613 -2.437 C 52.675 39.134 53.371 38.104 54.33 37.885 z" style="stroke: none; stroke-width: 1; stroke-dasharray: none; stroke-linecap: butt; stroke-linejoin: miter; stroke-miterlimit: 10; fill: rgb(0,0,0); fill-rule: nonzero; opacity: 1;" transform=" matrix(1 0 0 1 0 0) " stroke-linecap="round"/>
</g>
</svg>