<?xml version="1.0" encoding="UTF-8"?>
<svg width="1200" height="800" viewBox="0 0 1200 800" fill="none" xmlns="http://www.w3.org/2000/svg" role="img" aria-label="Team meeting illustration in MADAR brand colors">
  <defs>
    <linearGradient id="brandGrad" x1="0" x2="1" y1="0" y2="1">
      <stop offset="0%" stop-color="#189748" stop-opacity="1"/>
      <stop offset="100%" stop-color="#8bd6a4" stop-opacity="0.9"/>
    </linearGradient>
    <linearGradient id="softGreen" x1="0" x2="1">
      <stop offset="0%" stop-color="#0f8a3b" stop-opacity="0.95"/>
      <stop offset="100%" stop-color="#c7f1dd" stop-opacity="0.35"/>
    </linearGradient>
  </defs>

  <!-- Background subtle panel -->
  <rect width="1200" height="800" fill="#ffffff"/>
  <rect x="80" y="60" width="1040" height="640" rx="20" fill="url(#softGreen)" opacity="0.12" />

  <!-- Table -->
  <rect x="160" y="440" width="880" height="120" rx="10" fill="#f7fff6" stroke="#e6f8ea" />
  <rect x="160" y="420" width="880" height="16" rx="6" fill="#eaf6ef" />

  <!-- Person A (left) simplified shapes -->
  <g transform="translate(200,300)">
    <circle cx="80" cy="40" r="40" fill="#ffffff" stroke="#189748" stroke-width="3" />
    <rect x="24" y="96" width="112" height="64" rx="8" fill="#ffffff" stroke="#dff5e9" />
    <path d="M40 120 q40 18 80 0" stroke="#189748" stroke-width="6" fill="none" stroke-linecap="round" opacity="0.9"/>
  </g>

  <!-- Person B (center) -->
  <g transform="translate(460,240)">
    <circle cx="80" cy="40" r="44" fill="#8bd6a4" />
    <rect x="20" y="96" width="120" height="80" rx="10" fill="#ffffff" stroke="#c9f0d6" />
    <rect x="64" y="118" width="32" height="50" rx="6" fill="#189748" />
  </g>

  <!-- Person C (right) -->
  <g transform="translate(820,240)">
    <circle cx="80" cy="40" r="44" fill="#ffffff" stroke="#0f8a3b" stroke-width="3" />
    <rect x="20" y="96" width="120" height="80" rx="10" fill="#ffffff" stroke="#e6f8ea" />
    <path d="M36 116 L124 116" stroke="#189748" stroke-width="8" stroke-linecap="round"/>
  </g>

  <!-- Presentation board -->
  <g transform="translate(360,60)">
    <rect x="0" y="0" width="480" height="220" rx="12" fill="#ffffff" stroke="#e6f8ea" />
    <rect x="12" y="12" width="456" height="120" fill="#f8fff9" />
    <circle cx="120" cy="72" r="64" fill="url(#brandGrad)" opacity="0.95" />
    <path d="M220 60 L320 60" stroke="#0f8a3b" stroke-width="8" stroke-linecap="round" opacity="0.9"/>
    <rect x="360" y="36" width="56" height="12" rx="6" fill="#189748" />
  </g>

  <!-- Documents on table -->
  <g transform="translate(380,420)">
    <rect x="0" y="-24" width="220" height="140" rx="6" fill="#ffffff" stroke="#eaf6ef" />
    <rect x="12" y="-12" width="80" height="36" rx="4" fill="#189748" opacity="0.95" />
    <rect x="12" y="40" width="160" height="12" rx="4" fill="#c7f1dd" />
  </g>

  <!-- Laptop (left of center) -->
  <g transform="translate(300,420)">
    <rect x="0" y="-36" width="120" height="80" rx="8" fill="#ffffff" stroke="#eaf6ef" />
    <rect x="14" y="-20" width="92" height="56" rx="4" fill="#f6fff8" />
    <path d="M20 -2 L60 -2 M60 -2 L90 28" stroke="#189748" stroke-width="3" stroke-linecap="round"/>
  </g>

  <!-- Standing presenter (right) simplified) -->
  <g transform="translate(900,220)">
    <rect x="0" y="0" width="48" height="200" rx="10" fill="#ffffff" stroke="#e6f8ea" />
    <circle cx="24" cy="-24" r="28" fill="#189748" />
    <path d="M24 8 L24 120" stroke="#0f8a3b" stroke-width="6" stroke-linecap="round"/>
    <path d="M-16 160 L64 160" stroke="#dff5e9" stroke-width="28" stroke-linecap="round"/>
  </g>

  <!-- Shadow/ground -->
  <ellipse cx="600" cy="640" rx="280" ry="28" fill="#000" opacity="0.06" />

</svg>