<?xml version="1.0" encoding="UTF-8"?>
<svg width="1200" height="800" viewBox="0 0 1200 800" fill="none" xmlns="http://www.w3.org/2000/svg" role="img" aria-label="Institutional development illustration in brand colors">
  <defs>
    <linearGradient id="g1" x1="0" x2="1" y1="0" y2="1">
      <stop offset="0%" stop-color="#189748" stop-opacity="0.95"/>
      <stop offset="100%" stop-color="#189748" stop-opacity="0.55"/>
    </linearGradient>
    <linearGradient id="g2" x1="0" x2="1">
      <stop offset="0%" stop-color="#0f8a3b" stop-opacity="0.9"/>
      <stop offset="100%" stop-color="#8bd6a4" stop-opacity="0.25"/>
    </linearGradient>
  </defs>

  <!-- Background soft shape -->
  <rect x="0" y="0" width="1200" height="800" fill="url(#g2)" />

  <!-- Central building-like shape representing institutions -->
  <g transform="translate(220,150)">
    <rect x="0" y="40" width="760" height="480" rx="18" fill="white" />
    <rect x="16" y="56" width="728" height="432" rx="12" fill="url(#g1)" opacity="0.08" />

    <!-- Pillars -->
    <g transform="translate(56,110)">
      <rect x="0" y="0" width="48" height="320" rx="6" fill="#ffffff" opacity="0.95" stroke="#189748" stroke-width="2"/>
      <rect x="80" y="0" width="48" height="320" rx="6" fill="#ffffff" opacity="0.95" stroke="#189748" stroke-width="2"/>
      <rect x="160" y="0" width="48" height="320" rx="6" fill="#ffffff" opacity="0.95" stroke="#189748" stroke-width="2"/>
      <rect x="240" y="0" width="48" height="320" rx="6" fill="#ffffff" opacity="0.95" stroke="#189748" stroke-width="2"/>
    </g>

    <!-- Roof -->
    <polygon points="40,80 380,0 720,80" fill="#189748" opacity="0.95" />
    <rect x="40" y="80" width="680" height="28" fill="#0f8a3b" opacity="0.9" />

    <!-- Door / entrance -->
    <rect x="320" y="260" width="120" height="180" rx="10" fill="#0f8a3b" />
    <circle cx="385" cy="350" r="6" fill="#ffffff"/>
  </g>

  <!-- Decorative gear and chart shapes to imply development & consulting -->
  <g transform="translate(80,520) scale(0.9)">
    <circle cx="0" cy="0" r="40" fill="#ffffff" opacity="0.85" />
    <path d="M-8 -8 L 8 -8 M -8 0 L 8 0 M -8 8 L 8 8" stroke="#189748" stroke-width="3" stroke-linecap="round"/>
  </g>

  <g transform="translate(980,520) scale(0.9)">
    <rect x="-60" y="-40" width="120" height="80" rx="8" fill="#ffffff" opacity="0.95" />
    <rect x="-48" y="-20" width="24" height="48" rx="3" fill="#189748" />
    <rect x="-12" y="-8" width="24" height="56" rx="3" fill="#0f8a3b" />
    <rect x="24" y="6" width="24" height="24" rx="3" fill="#8bd6a4" />
  </g>

  <!-- Subtle rounding shadow -->
  <ellipse cx="600" cy="700" rx="300" ry="30" fill="#000" opacity="0.06" />

  <!-- Make the illustration scalable and crisp by not embedding text fonts -->
</svg>